<?xml version="1.0" encoding="UTF-8"?>
<svg enable-background="new 0 0 434.553 336.384" viewBox="0 0 434.553 336.384" xmlns="http://www.w3.org/2000/svg">
 <path d="m136.631,14.113c-4.311-1.897-9.149-3.268-15.801-2.822 .179-2.044 2.777-1.132 3.95-1.128 4.356.01 10.96.923 11.851,3.95z" fill-rule="evenodd"/>
 <path d="m135.502,18.062c-3.839-.634-10.326-3.823-15.238-3.386-.303-1.674 7.012-1.003 9.031-.564 2.714.591 6.003,1.956 6.207,3.95z" fill-rule="evenodd"/>
 <path d="m135.502,22.014c-5.021-1.221-10.39-3.703-15.238-3.386-.207-.96.441-1.064 1.129-1.128 6.013,1.251 11.879-.682 14.109,4.514z" fill-rule="evenodd"/>
 <path d="m120.264,21.45c7.589-.44 12.912,1.386 15.803,5.643-4.678-.026-7.197-2.21-10.159-3.951-2.27-.174-5.181.291-5.644-1.692z" fill-rule="evenodd"/>
 <path d="m119.701,25.399c7.022-.25 11.554,1.99 15.238,5.08-3.815,3.254-6.432-2.953-10.723-2.822 1.689,2.639 6.36,2.294 7.337,5.645-2.196.249-3.408,1.483-5.08,2.257-1.449-2.878-3.431-5.224-6.208-6.773-7.638.631-6.316,11.648-1.692,14.674 .115,1.766-.381,4.143.564,5.079 1.646,1.609 1.432-3.431 3.951-2.821 1.285,3.144-2.669,5.487-6.771,5.079-1.347-1.545-1.12-3.41-.565-5.643-.603-3.316-4.134-4.364-4.515-7.902-.579-5.391 3.623-8.97 9.029-10.158-.3-.454-.589-.917-.565-1.695z" fill-rule="evenodd"/>
 <path d="m124.779,36.122c-3.362-.022-3.062-3.708-7.336-2.821 2.151-4.438 6.713-.637 7.336,2.821z" fill-rule="evenodd"/>
 <path d="m140.582,32.736c5.979-1.088 6.414,3.369 9.594,5.08-2.734,1.409-3.35,3.913-7.337,5.079-.596-3.418 3.225-2.418 4.515-3.95-1.214-1.982-4.751-1.645-7.9-1.693-.52-2.212 2.976-.409 3.386-1.692-.103-1.593-2.683-.706-2.258-2.824z" fill-rule="evenodd"/>
 <path d="m104.463,36.122c2.038.767 1.11,7.714-1.129,7.901-.098-3.108 1.718-4.301 1.129-7.901z" fill-rule="evenodd"/>
 <path d="m151.868,36.688c4.524-.386 3.857,4.42 7.337,5.078 3.472.982 3.943-3.259 6.772-1.128-3.003,8.266-13.499,2.755-14.109-3.95z" fill-rule="evenodd"/>
 <path d="m107.849,37.816c2.021.266.447,5.861-.565,6.772-2.689-.936.066-5.351.565-6.772z" fill-rule="evenodd"/>
 <path d="m120.264,37.816c1.86.022 3.994-.231 3.951,1.692-1.383,1.219-4.173.422-3.951-1.692z" fill-rule="evenodd"/>
 <path d="m110.106,41.202h1.692c-.939,1.318.302,4.816-2.257,4.515-.247-1.941.224-3.164.565-4.515z" fill-rule="evenodd"/>
 <path d="m152.433,44.023c2.592.117 2.557,3.286.564,3.951-2.314.659-2.267-3.923-.564-3.951z" fill-rule="evenodd"/>
 <path d="m101.077,69.983c-2.268,1.307-6.954.196-10.159.565 1.118-2.222 8.102-1.109 10.159-.565z" fill-rule="evenodd"/>
 <path d="m123.086,77.885c1.132-.193 1.766.115 1.693,1.129h-1.693v-1.129z" fill-rule="evenodd"/>
 <path d="m133.245,101.588c2.374,2.19.049,8.428-2.257,9.593 .281-3.668 1.7-6.2 2.257-9.593z" fill-rule="evenodd"/>
 <path d="m189.68,103.281c-.52,11.808 9.074,13.5 10.723,23.138-4.16-.543-4.032-1.675-6.772-5.644-2.547-3.688-6.047-7.017-5.644-14.109-5.944.313-8.65,6.709-12.98,6.772 3.268-5.007 8.83-7.724 14.673-10.157z" fill-rule="evenodd"/>
 <path d="m220.157,109.489c2.443.236-.595,3.276 0,0z" fill-rule="evenodd"/>
 <path d="m223.542,110.618c2.446.234-.593,3.275 0,0z" fill-rule="evenodd"/>
 <path d="m183.472,118.519c.912-.16.973.534 1.693.564 2.676,8.612 7.565,15.009 8.466,25.396 1.339.782 2.71,3.779 5.08,5.08 2.992,1.642 9.941,3.25 12.416,2.821 2.648-.458 2.533-3.557 5.08-2.821-.109,1.96-1.997,2.143-2.257,3.95 .083,1.044 1.91.347 2.257,1.129-.155,1.162-2.103.532-2.257,1.693-.554,3.563 2.881,3.139 2.821,6.208-1.248,1.107-5.697-1.31-6.772,1.128-1.415-1.294-3.487-2.356-4.515,0 .301,3.084 4.968,1.804 6.207,3.95 2.681-.517 3.775-2.621 6.773-2.821 3.788-3.549 3.066-11.606 3.948-18.06 4.942,6.633-.064,15.039-2.819,20.317-5.914,2.042-12.974,4.527-16.932-1.129 .07-4.511 3.888-6.772 8.466-5.08 .891-1.178 1.17-2.968 1.128-5.08-1.024-2.169-2.851-.363-4.515-.563-5.054-.611-9.625-2.852-12.417-6.208-1.555.702.717,5.23-2.257,4.515-2.791-2.035-1.287-5.782-1.692-9.029-1.133-9.079-6.432-17.359-7.902-25.96z" fill-rule="evenodd"/>
 <path d="m150.176,123.598c-.021,1.861-1.605,2.158-3.386,2.257-.474-.656-.746-1.513-.565-2.822 .975-.984 3.489-.624 3.951.565z" fill-rule="evenodd"/>
 <path d="m245.552,125.855c-.709,2.488-2.773,3.623-6.207,3.386-3.743,1.905-7.186,7.106-12.416,5.643 .585-2.038 3.088-1.582 4.515-2.257 2.785-1.319 5.113-3.388 7.337-5.08 3.609.788 4.025-1.617 6.771-1.692z" fill-rule="evenodd"/>
 <path d="m248.94,126.419c1.538-.411 1.134,1.122 2.255,1.128-.489,1.642-.846.635-2.255.565v-1.693z" fill-rule="evenodd"/>
 <path d="m125.91 129.24c-7.021 0.503-13.298 1.75-19.752 2.822 3.228-4.571 13.992-5.672 19.752-2.822z" fill-rule="evenodd"/>
 <path d="m116.88 132.06c-2.497 2.393-5.838 3.943-9.594 5.078 1.782-2.816 6.355-5.57 9.594-5.078z" fill-rule="evenodd"/>
 <path d="m133.24 136.58c-4.581 3.131-10.714 4.711-15.237 7.9 2.375-4.998 9.093-8.539 15.237-7.9z" fill-rule="evenodd"/>
 <path d="m260.22 138.27c3.566 2.079 2.916 8.373 5.645 11.288-3.613-2.032-3.992-7.297-5.645-11.288z" fill-rule="evenodd"/>
 <path d="m266.433,138.836c3.888,5.937.785,19.607 2.258,28.781 .383,2.401 2.175,4.245 1.127,6.773-4.248-8.73-2.029-23.929-3.385-35.554z" fill-rule="evenodd"/>
 <path d="m131.55 139.4c0.264 1.77-1.419 1.592-2.257 2.257-0.946 2.105-1.964 4.948-3.387 6.773-1.183 1.519-3.266 3.735-5.644 3.95-0.904-2.24 2.142-2.865 3.386-4.515 2.213-2.93 3.583-7.863 7.902-8.465z" fill-rule="evenodd"/>
 <path d="m121.39 145.04c1.829 1.086-1.112 3.941-2.257 5.645-1.252 1.862-2.736 5.414-5.079 5.078 0.879-5.141 4.707-7.332 7.336-10.723z" fill-rule="evenodd"/>
 <path d="m141.71 145.04c2.252 1.757-2.777 4.806-4.515 6.208-1.881 3.764-4.775 6.512-7.901 9.031-0.305-3.171 3.395-5.553 5.644-7.902 2.368-2.475 4.852-4.925 6.772-7.337z" fill-rule="evenodd"/>
 <path d="m257.97 146.17c2.797 2.094 3.896 5.883 5.642 9.029-3.21-1.109-4.296-5.706-5.642-9.029z" fill-rule="evenodd"/>
 <path d="m291.27 148.99c1.679 1.331 2.834 3.187 2.82 6.208-1.529-1.48-2.509-3.51-2.82-6.208z" fill-rule="evenodd"/>
 <path d="m181.215,149.559c.742.199.889.993 1.694,1.129-1.108,1.713-2.261,3.382-5.644,2.821v-2.257c2.094.213 3.849.085 3.95-1.693z" fill-rule="evenodd"/>
 <path d="m176.136,152.945c-.655,2.167-2.318,3.326-5.079,3.386-.007-1.122-1.54-.717-1.129-2.257 2.71-.044 4.234-3.623 6.208-1.129z" fill-rule="evenodd"/>
 <path d="m272.643,160.282c6.195,14.121 14.154,26.477 20.313,40.634-3.07-2.314-3.986-6.352-5.643-9.595-4.771-9.351-10.928-18.538-15.236-28.782-.238-1.181.386-1.495.566-2.257z" fill-rule="evenodd"/>
 <path d="m339.8 171c-0.26 2.939-2.659 3.739-3.952 5.645-0.401 1.855-0.267 4.249-2.255 4.516 1.231-4.226 1.443-9.467 6.207-10.161z" fill-rule="evenodd"/>
 <path d="m342.058,172.698c3.079.896-1.223,2.967-1.13,4.515-.326,2.406.893,4.778.564,6.77-.14.854-1.015,1.346-1.13,2.26-.447,3.628 1.121,9.099-2.82,11.287 1.146-5.473-3.387-5.266-5.079-7.902 .576-3.75 4.482-4.17 5.645-7.335-.505-5.021 2.012-7.019 3.95-9.595z" fill-rule="evenodd"/>
 <path d="m274.898,177.777c.741.198.889.992 1.694,1.128 1.339,7.718 6.717,13.726 10.159,20.316 2.846,5.456 4.691,11.272 9.592,15.238-.396,3.031.646,4.623 1.13,6.772-3.033-.593-1.421-3.741-2.257-5.645-1.516-3.445-5.512-5.167-7.337-8.465-1.22-2.204-1.185-5.174-2.258-7.337-1.722-3.472-4.482-6.632-6.209-10.159-1.892-3.865-3.233-7.732-4.514-11.848z" fill-rule="evenodd"/>
 <path d="m67.215,185.677c4.273.995 7.933,2.603 10.723,5.08 5.334,1.295 11.581,2.746 18.06,4.515 2.712.739 8.151,1.075 7.9,5.08-3.642,2.153-6.276-2.026-9.594-3.388-3.978-1.63-9.542-1.086-12.416-3.949-2.465.395-3.179-.96-5.644-.565-1.706-3.562-7.947-2.589-9.029-6.773z" fill-rule="evenodd"/>
 <path d="m224.671,187.37c-.887,2.376-4.064,2.415-6.773,3.387-2.197.788-4.678,2.668-7.337,3.385-2.051.554-4.578-.068-6.772.565-2.143.62-3.992,2.79-6.208,3.385-2.058.556-5.883.233-9.029.564-10.213,1.079-24.869,3.16-34.99,1.13-2.145-.432-5.833.165-6.208-2.822 25.062,2.285 55.956-.345 75.058-10.157 1.18-.239 1.497.385 2.259.563z" fill-rule="evenodd"/>
 <path d="m313.275,187.935c2.815.76 4.579,2.569 7.337,3.387 2.435-1.141 3.733-3.417 7.337-3.387-.246,3.706-5.59,2.312-6.774,5.08-2.701-1.624-7.448-1.206-7.9-5.08z" fill-rule="evenodd"/>
 <path d="m330.21 190.76c3.529 1.171 5.504 3.899 5.077 9.029-4.159-0.257-5.354-6.186-5.077-9.029z" fill-rule="evenodd"/>
 <path d="m321.74,195.837c1.173.314 1.196.879.564,1.692h-1.13c-.156-.912.535-.971.566-1.692z" fill-rule="evenodd"/>
 <path d="m328.513,195.837c3.06.048 4.396,12.393-1.129,10.722 .395-3.556.376-7.526 1.129-10.722z" fill-rule="evenodd"/>
 <path d="m299.731,200.352c2.17.043.914,2.723 1.13,3.949 .464,2.657 1.885,5.349 1.127,6.772-2.744-1.583-2.243-6.409-2.257-10.721z" fill-rule="evenodd"/>
 <path d="m150.176,207.123c-1.832,3.286-4.914.671-7.337.562-7.481-.326-16.01-.082-25.396-.562-7.361-.379-13.387.163-22.011-1.128-3.868-.58-7.161-3.278-10.723-3.387 3.644-2.317 7.591,1.181 11.852,1.692 1.921.229 3.982-.624 6.208-.564 2.331.063 4.629,1.102 6.772,1.13 9.908.119 20.561-.496 29.912.564 3.238.366 6.501,2.058 10.723,1.693z" fill-rule="evenodd"/>
 <path d="m294.09 204.3c1.155 1.855 3.022 2.999 3.387 5.645-2.229-0.781-3.295-2.728-3.387-5.645z" fill-rule="evenodd"/>
 <path d="m67.215 250.58c-0.625 3.874-5.587 4.474-8.464 6.21-15.822 9.532-29.115 24.148-45.714 33.297 17.407-13.821 32.584-29.871 54.178-39.507z" fill-rule="evenodd"/>
 <path d="m89.79 253.96c1.244 4.012-4.175 3.557-7.337 4.515-3.429 1.038-7.151 2.384-9.029 3.952-13.599 2.012-20.9 10.324-33.861 12.979 6.059-4.629 13.727-6.87 20.881-10.159 3.697-1.699 7.051-3.674 10.723-5.079 5.626-2.151 12.261-2.834 16.931-6.207l1.692-1e-3z" fill-rule="evenodd"/>
 <path d="m414.86,266.946c-3.466.861-3.313,5.337-3.952,9.029-4.278,6.42-9.466,4.898-16.364,2.255-4.606-3.488-4.149-15.381 2.255-14.672-7.812,4.113-2.971,15.158 6.774,11.852 .409,1.728-.974,1.658-.564,3.385 3.623-.138 4.845-2.677 6.207-5.079-1.101-1.24-4.358.896-4.515-2.255 1.003-1.057 1.436.457 3.387,0 5.718-3.895-.87-9.337-5.079-10.159 1.616-3.063 5.86-.693 7.899,1.13 1.675,1.492 1.339,5.213 3.952,4.514z" fill-rule="evenodd"/>
 <path d="m388.334,264.687c-2.683,2.145-6.623,1.015-9.595,1.13-4.204.16-8.299.918-12.979.564 2.365-3.653 9.777-2.724 14.674-2.822 2.944-.06 6.564-1.922 7.9,1.128z" fill-rule="evenodd"/>
 <path d="m338.108,268.073c-9.223-.145-18.385,2.396-27.091,1.692-5.008-.403-9.665-3.727-14.674-3.385-.092-.656.127-1.006.565-1.13 4.604-2.291 9.605.771 14.674,1.13 6.627.469 13.505-.5 21.446,0 1.291.082 4.878-1.078 5.08,1.693z" fill-rule="evenodd"/>
 <path d="m398.494,268.636c1.065.818 2.5,1.264 2.257,3.388-2.324.433-3.552-1.925-2.257-3.388z" fill-rule="evenodd"/>
 <path d="m361.246,269.201c10.128,2.101 20.218,4.236 28.783,7.901-1.798,3.438-5.837-.273-9.031-1.127-4.074-1.094-9.019-.715-11.287-3.388-3.688.678-4.882-1.139-7.899-1.127-.441-.502-.609-1.276-.566-2.259z" fill-rule="evenodd"/>
 <path d="m361.811,274.846c-5.126-1.442-13.631.032-18.062-.565-.959.207-1.062-.44-1.127-1.127 5.209-.449 16.477-2.226 19.189,1.692z" fill-rule="evenodd"/>
 <path d="m168.235,280.49c5.329.996 10.344.546 15.237,1.127 2.58.306 4.729,1.551 7.337,1.692 3.798.212 6.911-.303 12.98.565 2.617.374 6.547.666 7.9,2.822-9.826.025-17.738-1.908-25.959-2.822-5.322-.59-10.884-.388-15.803-1.692-1.022-.271-1.582.366-1.692-1.692z" fill-rule="evenodd"/>
 <path d="m188.552,287.262c-13.517.136-25.99-.78-38.376-.564 7.634-3.522 21.931-1.015 31.604-.565 2.287.107 5.835-2.072 6.772,1.129z" fill-rule="evenodd"/>
 <path d="m316.66,199.222c2.292,6.549-7.371,8.647-6.207,14.108 3.054-.143 2.664-3.731 5.08-4.515 1.224-.094.254,2.003.564,2.822 1.679-1.706 2.478-4.292 3.387-6.771 5.631,2.011 3.569-7.923 7.335-9.595-2.425,7.422-1.493,14.956-7.335,19.188 .648-.668.639-1.995.562-3.387-2.84,1.297-2.79,5.488-5.077,7.337 8.364-1.607 16.519-8.313 23.139-13.544 2.312-5.967 7.121-12.438 5.642-20.318 1.084-.797 1.022-2.74 1.693-3.95 .36-2.085-.73-5.621.564-6.772 2.889.827 1.759,5.167 1.695,7.338-.198,6.379-2.559,13.189-3.388,18.623-1.638.811-2.326,2.562-2.822,4.515-1.92,1.468-4.265,2.508-5.645,4.515 5.169.411 9.677-3.481 15.239-3.949 5.708-.48 12.354,1.189 18.623,2.257 2.632.448 5.481.124 7.899.562 8.472,1.539 16.451,4.926 21.448,8.467h2.82c11.502,9.257 27.931,19.173 22.011,40.635-1.14,1.683-2.859,2.783-3.952,4.515-.306,2.515-.554,5.089-1.128,7.334 5.204,5.298 10.616,7.532 13.547,15.239 2.36,6.219 3.215,15.245.562,22.011-2.926,7.466-12.026,16.835-19.751,18.623-2.825.655-6.008-.114-9.029,0-8.217.311-17.195-.14-25.963,1.128-2.154.312-4.501,1.439-6.77,1.694-6.604.74-13.292-.128-19.189,0-7.857.17-14.779,2.072-21.447,1.693-2.113-.12-4.18.544-6.207.564-4.311.044-8.646-1.344-12.979-1.692-4.967-.404-9.78.2-14.109-1.13-2.96-.909-6.382-3.504-9.031-5.08-3.821-2.269-4.207-2.396-7.335-6.207-1.38-1.678-3.364-3.139-3.949-4.517-3.633-8.506-.758-21.717 9.029-29.908-6.104-1.157-9.668-9.261-5.08-14.674 2.485-.146 3.32-1.947 6.207-1.694-3.835-6.55-2.569-18.794 3.388-22.009-4.187-7.665-12.226-11.478-14.109-21.445-2.457-5.445-7.16-8.644-11.289-12.417-.475-2.355 1.098-2.664 1.13-4.515-2.199-8.146-11.339-9.355-11.286-19.753-2.01-3.068-3.512-6.648-4.518-10.723-1.026-1.604-3.205-2.06-3.949-3.95-.873-.82-.496-2.889-.565-4.515-3.201-.381-3.261,2.383-5.077,3.386-.437,2.693.882,3.633.562,6.207-2.362,4.271-9.123,2.811-10.722-1.128 .06,4.513 2.246,8.591 1.692,12.981-.393,3.119-2.571,5.264-2.819,7.9-.175,1.818.753,3.754.564,5.645-.28,2.787-1.736,4.817-1.694,7.334 .036,2.09 1.439,3.973 1.694,6.774 .188,2.09-.629,4.005-.564,6.207 .078,2.813 1.689,5.704 2.255,9.029 .45,2.63.016,5.5.564,7.902 .63,2.746 2.655,4.73 3.388,7.337 2.234,7.952-.03,18.024 2.257,26.525 .562,2.09 2.019,4.356 2.258,7.899 .272,4.041-1.004,7.679 1.127,11.289 .26,1.761-1.203,1.803-2.819,1.689 3.779,4.603 2.571,15.556 4.515,20.318-.046,2.397-3.597,1.296-4.515,2.822 1.873,2.616 5.227-.998 7.334-1.692 4.232,1.222 7.982,3.61 7.902,7.899-.049,2.683-4.972,9.273-7.337,10.16-5.016,1.873-11.06-.776-12.979-5.08-.542-1.217 0-2.797-.564-3.95-1.44-2.953-4.278-4.734-5.08-7.337-2.455.234-4.248,2.001-6.771.563-2.276-4.02-1.49-9.002-5.644-10.157-.345-2.951-1.69-4.949-.564-7.902-4.876-4.225-11.841-1.299-17.496-1.129-5.475.165-11.813,1.175-16.93.564-1.307-.154-2.637-1.052-3.951-1.128-11.011-.638-24.118.232-36.119-1.127-31.579,4.384-63.371,1.813-100.456,2.819 .211,3.408-.158,6.237-.563,9.029-3.751,1.142-4.889,4.895-5.644,9.03-1.617,1.584-4.064,2.333-5.645,3.951-2.153.085-2.718-1.421-4.515-1.692-2.281,4.281-5.122,8.479-5.079,13.545-5.882,7.439-19.669,5.591-18.625-4.516 .657-6.345 7.145-7.015 13.545-7.337 .086-3.283-5.681-.714-7.337-2.257-1.979-7.753 2.014-14.07 2.257-21.446-2.404-6.941-1.682-21.85-1.692-31.04-.027-24.534 1.75-46.936 2.821-69.979 .487-10.458 1.095-21.163 1.128-31.604 .031-9.442-3.343-20.602-3.95-32.168-.26-4.972.418-10.289 0-15.238-.277-3.268-1.393-6.269-1.693-9.594-.821-9.08-.619-16.987-1.129-28.218-.562-12.399-1.655-24.846-1.127-36.679 .794-17.767 11.169-26.183 25.396-31.604 12.527-.493 21.923,1.141 27.089,9.594 1.208,1.976 1.572,5.065 2.822,7.337s2.9,4.016 3.951,6.208c4.135,8.633 5.131,15.032 6.772,24.831 1.551,9.269-.366,17.358.564,26.525 2.338-8.01 5.657-15.037 10.723-20.317-.537-5.617 2.272-7.887 6.208-9.029 .539-2.848 2.279-4.494 3.386-6.773 1.777-.631 1.277-.05 3.386,0 3.758-3.101 2.763-7.732 3.386-12.416 .829-6.221 3.749-12.903 3.951-19.752 1.195-2.002 3.596-2.799 3.951-5.644 5.157-1.058 8.564-6.686 14.108-8.465 2.074-.666 5.941-.379 9.595-1.129 1.042-.214 1.709-1.112 2.257-1.128 3.918-.12 7.404,2.471 11.852,1.692 6.293,4.053 12.56,8.133 15.801,15.239 .261,8.54 4.397,16.085 1.693,24.267-1.957-1.023-1.641-3.448-1.128-5.644-.697-2.203-1.659-5.023-2.257-7.902-.523-2.515-1.444-5.678-1.694-7.901-.065-.579.833-2.777.564-3.386-1.338-3.019-4.644-2.957-6.772-5.08-.42,1.737 1.549,1.085 1.128,2.822-2.371-.67-3.59-.759-3.95,1.692-5.524-4.634-12.101-8.216-22.575-7.901 .116-2.197 2.785-.886 3.95-1.128 6.086-1.263 15.212.739 20.317,4.515-1.85-6.892-17.505-10.435-27.089-7.337-7.014,2.269-17.843,13.91-19.187,24.268-.529,4.067.395,7.406 0,11.287 2.088-.483-.505-6.693 2.821-7.337 .416,4.93-1.358,7.672-2.257,11.288-1.252.311-.804-1.078-1.693-1.128-1.827,1.559-2.154,4.618-3.387,6.772 9.155,9.47 20.729,16.521 31.04,24.832-.316-4.579-4.43-10.24-5.643-15.803-4.175.608-7.511-1.766-10.723-2.821-3.441-1.131-7.49-.929-9.594-3.951 6.94.96 11.746,4.056 18.06,5.644 2.146.83.11-2.523 2.257-1.692 2.829,3.943 3.91,9.634 6.208,14.109 .938-2.459-1.943-5.946-1.13-10.158 5.899,3.979 1.041,18.463 7.902,19.752 4.799.901 8.267-7.245 8.465-11.288-3.26-2.664-3.495,4.376-6.208,2.257-.068-4.771 4.708-4.697 9.029-5.078 2.83-.181 2.381-3.639 5.643-3.386-.317,3.256-2.068,5.08-5.643,5.079 .024,5.292-2.473,8.062-3.95,11.852 1.968-1.074 10.932-3.844 9.593,3.951-1.659,1.162-4.658.985-6.772,1.692 3.019,4.43 9.014,3.305 12.98,5.08 .9.403 4.836,2.872 6.208,3.951 3.726,2.929 7.028,7.885 7.337,12.98 .126,2.094-.738,4.362-.564,6.771 .179,2.495 1.581,4.151 1.128,6.208-3.729-2.126-3.22-6.115-4.515-9.593-4.289-11.513-14.171-20.148-26.525-23.703-16.899-10.754-31.723-23.584-47.97-34.99-2.123.133-2.2,2.314-2.821,3.95 5.311,7.587 17.396,10.937 25.961,16.366 .707.449 2.538,1.494 3.386,2.258-.141-.127 2.723,1.969.563,2.257-2.801-1.45-4.836-4.418-7.9-5.645-1.44-.576-2.494.405-3.951,0-1.533-.427-3.193-2.378-5.078-3.386-5.387-2.88-10.625-6.115-16.366-9.029-3.818-.055-2.285,5.24-3.387,7.9-1.907,2.798-5.808,4.358-7.336,7.902-.746,1.727-.381,4.763-1.128,7.336-.657,2.26-2.429,4.184-2.822,6.208-1.077,5.531 1.233,11.514-1.129,16.367 2.742,4.03 3.68,9.864 6.772,13.544-1.251-9.33-3.392-17.322-1.128-26.524 2.755.456 1.124,4.302 1.128,5.644 .038,9.932.757,19.346 4.515,25.96 2.909,5.117 7.849,7.582 9.594,14.109-.376,4.139.906,6.619 2.822,8.465 2.182.292 2.226-3.251 3.95-1.693-.561,2.074-2.079,3.188-2.258,5.645 1.895,2.312 2.931-3.027 4.516-1.13-1.078,2.329-3.261,2.571-3.387,5.08-.137,2.739 2.997,5.014 4.516,6.772 2.11-.146-.161-4.674 2.258-4.515 1.001,1.068.411,3.728.563,5.645 3.213,6.131 9.729,11.543 19.188,9.593 2.125-.244 2.57,1.192 3.386,2.258 14.12-4.317 21.967-14.904 34.99-20.317-4.807,6.105-13.723,8.098-18.059,14.673 6.475-.006 12.457-4.373 19.188-6.207 2.499-.682 5.073-.447 7.337-1.13 4.071-1.229 9.029-4.351 14.674-5.079-2.102-11.632-3.304-24.162-9.595-31.604-13.021,5.227-28.555,7.939-40.069,14.672-1.496-1.487 1.671-1.193 1.692-2.821-.708-2.302-3.896-2.125-6.207-2.822-.633-1.777-.052-1.278 0-3.386-1.082-.989-2.943-1.196-4.516-1.693 .929-11.26-6.202-18.878-10.722-26.524 4.64.814 5.138,5.772 7.9,8.465 1.88-1.659 2.882-4.783 2.821-6.772-.239-7.883-11.338-14.511-14.109-20.882 1.897.58.88-1.755 1.13-2.821 4.555,2.969 5.546,9.503 9.029,13.544 3.392.182 5.587,1.562 7.337,3.386 2.576-.318 3.515,1 6.208.565 8.325,5.031 19.097,7.616 26.525,13.544 1.794,2.72 3.826,5.204 5.643,7.901-2.788,2.197-4.946-1.053-5.643-2.821-6.879-2.339-11.141-7.295-16.366-11.288-6.953-2.266-13.425-5.011-19.753-7.901-.234,2.152 1.986,3.705 2.258,6.773 .31,3.502-1.79,7.697-1.694,11.287 .989,2.586 2.796,4.352 2.258,8.466 1.23,1.59 3.681,1.962 5.08,3.386 .327,1.833-.385,2.625-.565,3.95 2.811.388 4.671,1.727 6.772,2.822 11.762-3.289 24.521-8.587 34.426-11.852 4.529,1.591 5.384,7.633 7.337,11.852 3.122,6.742 4.706,13.203 5.079,23.138-3.729,2.434-8.282,3.441-12.416,5.08-4.042,1.601-7.306,3.854-11.287,5.644-1.112.5-2.575.007-3.951.564-.759.308-1.471,1.446-2.257,1.692-2.865.898-7.317,2.249-10.158,2.822-2.815.567-5.67-.106-8.465.563-4.663,1.121-9.288,5.192-14.674,5.08-8.357-2.365-18.924-2.521-20.881-11.287-4.013-1.442-6.238-4.673-9.029-7.337 1.638-6.524-1.279-10.373-5.643-12.417 .447-4.321-2.008-8.375-1.129-11.287-3.037-4.3-7.551-7.123-9.03-12.98-6.489-6.235-10.795-14.056-12.416-25.96-.366-2.688-2.1-4.714-2.822-7.336-.765-2.781-.565-5.547-1.128-8.465-1.352-7.001-5.386-13.534-5.079-19.752 2.074,1.392 2.502,4.7 3.386,7.336 1.854,5.532 3.499,13.531 5.079,20.317 .922-29.704-3.801-58.653-20.881-72.238-13.066-4.444-22.075-.985-29.91,6.208-6.19,5.682-10.202,16.575-10.159,27.089 .014,3.237.975,6.839 1.128,10.158 .211,4.547-.34,9.08 0,13.545 .751,9.868 2.592,23.415 2.257,33.861-.139,4.381 1.831,8.952 2.257,13.544 1.015,10.886.351,22.409 1.129,31.04 .114,1.256.97,2.404 1.129,3.386 1.558,9.626-.787,19.725-.564,29.347 .381,16.538-.41,33.368-1.129,50.229-.89,20.878.416,41.876-2.257,61.515 17.814,3.937 41.986-.488 60.951-.564 8.107-.032 16.161,1.521 24.267,1.692 16.198.342 32.085-4.044 47.971-3.95 15.426.09 30.78,1.918 46.276,2.258 16.458.358 32.964-2.811 49.664-1.695-2.586-9.718-1.961-22.594-2.822-33.859-.604-7.886-5.054-14.433-6.207-21.446-1.125-6.824-.671-14.035-1.694-20.881-.379-2.542-2.074-5.366-2.256-7.901-.362-5.014 1.811-8.327 2.256-12.414-2.768-2.812-5.031.767-6.77,2.255-3.717.969-6.653,3.481-9.596,5.645-2.842,2.089-5.539,5.41-9.029,5.079 .12-2.673 3.251-3.215 5.078-4.515 4.802-3.412 10.722-7.403 16.932-10.159 6.195-3.932 6.209-14.818 4.515-23.702-3.534,1.168-6.113,7.224-10.158,6.773-1.042-.117-1.488-1.58-2.822-1.694-1.329-3.089 1.042-6.189 2.257-6.208 1.978-.3-.563,3.878 1.694,4.514 7.155-1.688 7.118-10.564 10.159-16.366-1.773-3.307-3.684-6.476-4.516-10.723 1.604,2.376 5.93,6.943 6.208,10.723 .138,1.888-1.392,4.315-1.692,6.772-.312,2.528-.807,4.044.564,6.771 1.295-1.335.202-5.064.562-7.335 3.245,2.965 1.004,11.415 7.902,10.723-.763-4.136-2.2-12.469-2.822-18.625-5.964-4.193-9.172-11.146-14.674-15.801-1.725.408-2.056-.578-3.386-.565-3.956-4.826-11.249-5.69-17.495-7.9-3.568-1.263-7.424-3.171-9.594-5.644 3.441.321 4.617,2.908 8.466,2.821 1.822.505.793-1.841 1.693-2.257 2.318-.126 3.695-1.195 5.079-2.257-.59-1.479-1.79-2.348-2.821-3.386-1.683-7.725-8.328-13.492-9.031-20.317 2.24-.547 1.752,1.635 2.258,2.822 3.58-3.569 1.744-12.553 7.337-14.109-.341-1.351-.812-2.574-.564-4.515 7.707-12.422 11.986-28.271 19.186-41.198 5.454-.561 8.892.891 11.289,3.386 1.555-2.96 2.941-6.087 4.515-9.029 1.826-.322 2.839.171 3.385,1.128-.812,1.547-2.241.76-3.385,2.821-8.616,19.415-18.426,37.632-28.218,55.872 1.067.626 1.979,1.408 3.386,1.692 2.117-3.427 3.846-7.01 5.643-10.723 2.914-6.019 4.944-11.739 7.902-16.93 4.776-8.388 9.507-17.806 13.544-27.654 1.281-3.123 2.101-8.993 6.771-9.594 2.788,2.244 3.555,6.409 5.08,9.594 1.644,3.433 3.429,6.502 5.079,9.594-1.538,5.422-4.503,9.419-6.774,14.109-.046,2.495 3.325,1.57 3.388,3.951-3.636,7.276-8.742,13.079-11.852,20.881-3.523,2.31-5.488,6.174-6.207,11.288-1.858,2.279-4.01,4.268-5.08,7.336 3.144-.581 6.713-3.956 10.722-6.208 4.62-2.593 11.179-6.804 19.188-4.515 2.662.761 4.813,3.957 8.467,2.822 1.821,1.376 3.516,2.88 5.643,3.951 3.573,15.426 10.983,27.017 16.368,40.633-4.574-6.005-8.198-13.715-11.289-22.01-2.976-7.987-4.019-17.674-11.852-21.446 .386,2.534 1.706,5.038 2.822,7.337 1.268,2.609 2.141,5.091 3.385,7.901 1.245,2.806 3.845,5.525 5.08,8.465 .68,1.612.505,3.406 1.13,5.079 .78,2.09 2.457,4.083 3.385,6.208 2.776,6.351 4.606,13.016 9.594,17.495 1.84,3.993 2.577,9.088 6.774,10.723 1.957,9.417 13.03,12.434 10.157,24.832 3.383,1.509 8.596,1.188 9.031,5.643-3.412,1.29-6.032-1.938-8.467-3.385-4.36,1.66-4.838,7.201-6.207,11.852-2.756-.474-.68-4.384 0-6.207 .941-2.531 2.922-5.396 3.95-6.774 .946-11.671-7.812-13.632-9.595-22.574-9.621-9.433-17.42-25.787-22.573-41.196-1.788-5.349-3.495-10.856-5.645-15.239-2.59-5.275-9.842-13.002-17.493-12.416-2.273.174-5.031,2.688-8.467,4.515-8.341,4.438-16.424,8.544-25.396,12.416-7.21,3.111-10.751,7.147-18.06,10.159 3.777,2.235 8.238,1.362 11.852,2.822 3.62,1.461 5.622,5.852 9.593,6.207 4.234,5.927 8.019,12.298 14.674,15.802 .399,4.304 1.922,7.484 1.694,12.416 11.904-3.974 2.948-20.019 4.515-31.604-2.273,1.084-5.279,2.535-7.901,3.951-2.23,1.202-4.903,4.104-6.772,2.257 .693-1.939 3.316-1.951 5.645-2.257 1.699-2.061 4.832-2.692 6.207-5.08 3.259,1.411 3.787-1.279 5.643-.565 3.729,7.506-.393,20.805 1.13,28.783 3.049-2.892 1.905-8.57 2.819-12.98 .556-2.664 2.416-4.957 2.26-7.337-.51-1.9-1.263-.065-2.26-1.128 .491-1.641.846-.634 2.26-.564 .68-2.375-.911-2.474-1.13-3.951 3.937-.578.459-8.572 3.388-10.158 3.346,4.572-.246,18.179-1.692,25.96-.917,4.913-2.861,10.684-4.515,14.673 4.438,6.033 5.69,13.75 9.029,20.318 2.571,5.062 7.49,8.035 9.594,12.979 2.365-.267-.128-5.392 2.82-5.079 1.594,3.803-.521,8.404-1.692,11.288 .126,2.88 3.676,2.343 5.079,3.95 .729,6.044 5.44,8.102 6.207,14.109 2.795,2.097 4.419,5.364 6.774,7.899 11.398-9.483 23.741-18.023 29.909-32.733zm-101.019-95.376c2.844-.815 3.877,2.047 5.644.564 4.117-9.18-1.403-24.983 12.981-24.267 2.365-4.781 3.655-10.64 11.286-10.159 .508.998 1.362,1.648 1.692,2.822-.877,5.898-6.802,9.748-5.079,16.366 2.209-6.753 5.706-11.314 8.464-16.366-.055-2.765-3.21-2.433-3.949-4.515 2.887-4.263 4.326-9.971 6.774-14.674-2.848-5.431-3.982-12.575-7.902-16.93-8.467,23.889-21.929,42.783-29.911,67.159zm7.336-57.001c-3.403,6.786-6.104,13.916-9.028,20.881-2.953,7.029-6.629,13.629-9.031,20.881 2.701-1.119 5.991-2.515 8.466-2.258 5.608-13.769 13.777-24.977 19.752-38.375-2.708-1.431-6.715-1.562-9.595-2.821-.032.721-.723.781-.564,1.692zm31.04,11.287c.376-1.123 1.947-2.41 0-2.821 .337,1.004-1.653,2.343 0,2.821zm-12.417,14.109c-3.481,2.537-4.262,7.776-7.899,10.159-.335,5.898-2.822,14.941-.564,19.752 1.162-4.67 2.275-9.388 5.645-11.852-.255-8.156 5.699-10.102 6.771-16.93-1.068-.625-2.667-.721-3.953-1.129zm-12.414,9.594c-2.312,2.165-1.711,4.519-2.257,8.466-.416,2.995-2.455,5.887-2.822,8.466-.51,3.571 1.543,7.878-1.13,10.723-1.589-.102-.703-2.682-2.82-2.257-4.512-.869-5.069,1.483-7.337,2.257 .212-.072-1.519-.748-2.258-.565-1.389.343-2.749,2.93-3.95,1.129 .406-2.038 2.863-2.027 5.078-2.257-.542-1.857-2.267-.286-2.821-2.822 .866-1.392 3.977-.538 3.386-3.385-.122-2.512-4.492-.776-4.515-3.387 1.303-3.775 3.588-6.57 4.515-10.722-10.055.668-9.627,11.817-14.674,17.494 3.756,5.463 5.561,12.877 10.723,16.931 4.672-1.725 9.099-3.693 12.98-6.208 13.534-2.174 6.647-22.641 10.722-33.297-.652-.475-1.51-.745-2.82-.566zm-60.951,21.446c-2.122-4.462-4.336-8.832-9.03-10.723 3.184,3.029 6.872,8.548 9.03,10.723zm-98.763-6.772c-.452,3.416 2.587.377 0,0zm177.208,51.356c-1.038-4.657 2.126-10.715-1.128-12.416 1.247,5.715-2.285,9.468 1.128,12.416zm175.517,96.505c-.602-4.434-4.683-10.531-6.774-12.981-1.249-1.463-3.767-2.597-6.207-4.515-5.087-3.993-13.489-10.591-19.751-12.414-2.143-.625-4.171-.055-6.21-.564-1.966-.492-3.745-1.769-5.645-2.258-2.473-.641-5.38-.549-7.899-1.127-2.457-.57-4.707-1.92-6.771-2.26-9.071-1.488-18.994.482-25.961,1.694-1.208.675-1.103,2.659-2.822,2.82-3.677.854-5.986,2.228-8.465,3.387-4.172,1.95-8.498,3.982-10.722,6.207-2.209,2.209-3.171,4.703-5.079,7.337-4.729,6.524-10.993,10.232-18.624,13.547-2.811,4.312-3.375,8.441-2.824,15.236 1.543,3.348 5.564,4.218 6.209,8.467-4.289.68-8.151-1.709-10.724.562-3.196,7.989 4.122,13.101 11.854,10.159 1.607-1.752-1.497-5.514 1.128-6.772 2.508-.252-.382,4.896 2.257,4.515 2.48-1.784-.082-5.313 2.822-6.209 1.509,1.924-.109,4.487-.564,6.209 8.485-2.486 19.049-2.153 28.783-3.387 6.739-.853 13.133-2.771 19.186-3.388 1.782-.179 4.79-1.993 6.21.565-8.8,1.619-18.643,3.222-26.523,4.515-12.511,2.055-27.938,1.616-35.558,6.774-1.725.408-1.657-.974-3.385-.565-4.418,2.861-8.987,10.651-9.594,18.059-.969,11.811 4.469,16.558 10.724,20.318 2.99,1.799 5.337,2.642 8.465,3.95 7.288,3.052 17.228,2.462 25.396,3.95 14.065-3.624 32.271.376 49.664-2.82 6.317-1.162 15.845-1.341 22.573-1.695 4.43-.231 9.126.382 12.981,0 9.312-.92 19.746-12.046 20.881-22.573 1.538-14.295-6.195-20.373-12.417-27.652-1.696.79-4.097.822-4.515-1.13 3.824.498 2.023-1.144 2.258-2.258 .114-.539 1.332-.452 1.13-1.692-.354-2.158-1.976-3.731-3.95-3.949 7.117-1.266 9.477-10.58 8.463-18.062zm-112.872-23.138h1.128c.88-.147.393-1.238 0-1.692 1.58-.078 3.901-2.29 1.692-2.822-.558,1.885-2.262,2.627-2.82,4.514zm-9.594,4.515c.177-.765.804-1.077.564-2.258-4.175,1.47-6.402,4.887-9.029,7.899-1.72.917-3.949,1.318-3.952,3.952 9.928-.043 13.053-6.887 19.188-10.722-1.091-3.555 3.138-4.739 1.692-6.774-1.777,3.679-4.288,6.624-8.463,7.903zm1.692-3.952c1.706-.363 3.259-.882 3.387-2.82-1.924.144-2.989,1.15-3.387,2.82zm1.127,8.467c-1.89,1.711-4.386,3.91-6.207,5.079-2.009,1.291-5.924,1.21-6.207,4.515 3.146,1.288 6.315-1.47 9.029-3.387 4.111-2.898 8.061-5.874 9.595-10.159-.119-.632-.627-.877-1.13-1.128-1.393,2.319-3.417,3.575-5.08,5.08zm-83.523,65.465c-.281,4.306 2.425,10.312 3.385,15.236 5.957-1.244 11.512-.073 16.934-1.128 .102-5.368-.055-10.478-1.13-14.671-5.953-.423-11.866,1.488-19.189.563zm-209.941,17.496c6.639-.806 11.044-1.011 18.624-.565 1.606-3.849 2.078-8.831 2.257-14.108-6.713-1.203-12.978.303-19.752-1.13 .384,5.822-2.502,10.806-1.129,15.803zm22.01-9.03c2.218-1.277 4.287.413 6.208-.565 .211-2.707 1.895-4.243 0-6.209h-5.643c.777,3.109-1.182,5.603-.565,6.774zm187.367,0c-.665-1.971-.093-5.176-1.694-6.21-.791,2.238-.228,4.236 1.694,6.21zm-181.723,1.693c-.721-.03-.781-.724-1.692-.565-.88,1.389 1.915,1.66 1.692.565zm-5.644,10.157c1.708-.689-.398-2.154-.563-2.82 1.636-1.185 3.669-1.975 3.386-5.08-1.75.744-3.131-1.671-3.951,0 .764,1.047-2.346,7.151 1.128,7.9zm202.04-3.95c-4.472.234-9.93-.551-10.725,1.13 2.127,2.535 5.682.143 8.467,0 2.972-.154 6.786,1.497 9.029-1.13-1.586-1.489-4.171-.136-6.771,0zm-224.615,3.95c4.438.819 11.539,1.193 14.109-.563-4.672-.723-10.55-1.036-14.109.563zm236.467,6.209c-3.723-.979-5.928-3.479-7.337-6.772-2.492.866-4.942-.925-7.335.563 3.993,2.442 8.832,12.717 14.672,6.209zm5.641,0c-.08-3.233-5.337-9.378-7.899-3.385 1.412,1.033 4.644.245 4.515,2.819-.593,3.964-5.412,5.93-9.594,4.516 3.398,5.869 13.135,2.104 12.978-3.95zm-235.899-3.385c-.496,3.642-2.077,6.198-5.644,6.77 3.581,6.593 11.974-.889 11.852-6.77-1.807-1.524-3.744.434-6.208,0zm-11.287,7.9c-.718,7.082 10.317,9.58 13.544,2.822-3.577,2.19-11.074,2.77-10.723-3.387 .624-2.763 5.507-1.266 6.208-3.95-4.987-2.078-8.73,1.561-9.029,4.515z" fill-rule="evenodd"/>
 <path d="m169.363,44.023c.721,2.225-1.544,1.466-2.257,2.257-.53,3.984-4.246,4.785-5.079,8.466 2.206,4.353 3.465,9.332-1.128,10.159-3.155.567-9.479-6.814-14.109-6.773v-3.386c1.33.013 1.661-.972 3.386-.564 .42,1.737-1.549,1.084-1.128,2.821 4.605,1.038 7.43,3.858 11.287,5.643 2.156-.732.083-4.766-.564-6.207-1.768.301-1.814,2.324-4.516,1.692-.659-4.046 2.561-4.211 4.516-5.643-.652-2.341-4.273-4.144-2.822-6.772 2.413.41 2.475,3.169 3.951,4.515 3.459-1.43 4.644-5.137 8.463-6.208z" fill-rule="evenodd"/>
</svg>
